<svg xmlns="http://www.w3.org/2000/svg" viewBox="0 0 512 512" width="512" height="512">
  <defs>
    <radialGradient id="bg" cx="50%" cy="38%" r="75%">
      <stop offset="0%" stop-color="#3a2a0a"/>
      <stop offset="55%" stop-color="#15110a"/>
      <stop offset="100%" stop-color="#0a0a0b"/>
    </radialGradient>
    <linearGradient id="gold" x1="0" y1="0" x2="0" y2="1">
      <stop offset="0%" stop-color="#fde68a"/>
      <stop offset="45%" stop-color="#fcd34d"/>
      <stop offset="100%" stop-color="#f59e0b"/>
    </linearGradient>
    <filter id="glow" x="-40%" y="-40%" width="180%" height="180%">
      <feDropShadow dx="0" dy="0" stdDeviation="10" flood-color="#f59e0b" flood-opacity="0.55"/>
    </filter>
  </defs>
  <rect width="512" height="512" rx="115.2" fill="url(#bg)"/>
  <g filter="url(#glow)" transform="translate(256 248.32) scale(0.32985994397759105 -0.32985994397759105) translate(-290.5 -357)"><path d="M245 0 65 314V388H125Q178 388 214.0 411.5Q250 435 260 477H65V551H259Q250 589 222.0 614.5Q194 640 144 640H65V714H516V640H359Q394 602 403 551H516V477H405Q395 403 348.0 361.5Q301 320 227 305L423 0Z" fill="url(#gold)"/></g>
</svg>
